<svg width="240" height="179" viewBox="0 0 240 179" fill="none" xmlns="http://www.w3.org/2000/svg">
<g style="mix-blend-mode:plus-lighter" opacity="0.2">
<path fill-rule="evenodd" clip-rule="evenodd" d="M202.472 45.96L239 45.96V85.6303H235.087C217.074 85.6303 202.472 69.7722 202.472 50.2104V45.96Z" fill="#A3A3A3" fill-opacity="0.2"/>
<path fill-rule="evenodd" clip-rule="evenodd" d="M198.907 45.96L162.379 45.96V85.6303H166.292C184.305 85.6303 198.907 69.7722 198.907 50.2104V45.96Z" fill="#A3A3A3" fill-opacity="0.2"/>
<path fill-rule="evenodd" clip-rule="evenodd" d="M157.033 85.6299H120.95V45.9596H124.816C142.609 45.9596 157.033 61.8176 157.033 81.3795V85.6299Z" fill="#A3A3A3" fill-opacity="0.2"/>
<path fill-rule="evenodd" clip-rule="evenodd" d="M79.9668 85.6299H116.495V45.9596L112.582 45.9596C94.569 45.9596 79.9668 61.8176 79.9668 81.3795V85.6299Z" fill="#A3A3A3" fill-opacity="0.2"/>
<path fill-rule="evenodd" clip-rule="evenodd" d="M79.9668 0.000488281L116.495 0.000488281V39.6708H112.582C94.569 39.6708 79.9668 23.8128 79.9668 4.25088V0.000488281Z" fill="#A3A3A3" fill-opacity="0.2"/>
<path fill-rule="evenodd" clip-rule="evenodd" d="M156.588 39.6704L120.059 39.6704V0.000106812H123.973C141.986 0.000106812 156.588 15.8581 156.588 35.42V39.6704Z" fill="#A3A3A3" fill-opacity="0.2"/>
<path fill-rule="evenodd" clip-rule="evenodd" d="M198.017 39.6704L161.933 39.6704V0.000106812H165.799C183.593 0.000106812 198.017 15.8581 198.017 35.42V39.6704Z" fill="#A3A3A3" fill-opacity="0.2"/>
<path d="M202.615 32.0813C202.551 32.8159 202.509 33.557 202.488 34.3039L203.877 34.3435C203.867 34.7009 203.862 35.0598 203.862 35.42V36.4826H202.472V38.2803H203.613V38.6078H203.862V39.6704H205.896V38.2803H208.179V39.6704H210.462V38.2803H212.745V39.6704H215.028V38.2803H217.311V39.6704H219.594V38.2803H221.878V39.6704H224.161V38.2803H226.444V39.6704H228.727V38.2803L231.01 38.2803V39.6704H233.293V38.2803H235.576V39.6704H237.61V38.5685H237.859V38.2803H239V36.3646H237.61V34.1606H239V31.9567H237.61V29.7528H239V27.5489H237.61V25.345H239V23.1411H237.61V20.9372H239V18.7333H237.61V16.5294H239V14.3255H237.61V12.1216H239V9.91768H237.61V7.71378H239V5.50987H237.61V3.30597H239V1.39019H238.022V1.10206H237.61V0.000106812H236.065V1.39019H235.087C234.73 1.39019 234.375 1.39669 234.022 1.4096L233.971 0.020443C233.224 0.0476913 232.484 0.102173 231.752 0.183006L231.904 1.5647C231.196 1.64283 230.494 1.74675 229.801 1.87559L229.547 0.508904C228.814 0.645088 228.09 0.807831 227.374 0.996189L227.728 2.34045C227.041 2.52131 226.363 2.72696 225.695 2.9565L225.243 1.64177C224.54 1.88336 223.846 2.15017 223.164 2.4412L223.71 3.71975C223.057 3.99826 222.415 4.3001 221.784 4.62438L221.149 3.3881C220.488 3.72756 219.84 4.09039 219.205 4.47561L219.926 5.66412C219.319 6.03214 218.725 6.42168 218.144 6.83183L217.342 5.69598C216.736 6.12351 216.144 6.5723 215.567 7.04139L216.443 8.12022C215.893 8.56784 215.356 9.03492 214.833 9.52057L213.887 8.50253C213.344 9.00698 212.817 9.53043 212.306 10.0719L213.317 11.0258C212.83 11.5427 212.358 12.0769 211.901 12.6276L210.831 11.7409C210.359 12.3108 209.903 12.8975 209.466 13.5L210.59 14.317C210.173 14.8923 209.771 15.4827 209.388 16.0874L208.214 15.3425C207.817 15.9672 207.439 16.6064 207.079 17.2593L208.297 17.9301C207.954 18.5528 207.628 19.1885 207.321 19.8365L206.065 19.2415C205.748 19.9098 205.451 20.5906 205.173 21.2828L206.463 21.8005C206.198 22.4608 205.952 23.1321 205.725 23.8136L204.406 23.3744C204.173 24.0752 203.959 24.7862 203.766 25.5067L205.109 25.8664C204.925 26.5534 204.76 27.2495 204.616 27.9539L203.254 27.6742C203.105 28.3978 202.977 29.1297 202.87 29.8692L204.246 30.0686C204.144 30.7722 204.061 31.4831 204 32.2006L202.615 32.0813Z" stroke="#A3A3A3" stroke-opacity="0.3" stroke-width="2.78016" stroke-dasharray="2.22 2.22"/>
<path d="M122.647 146.919C122.584 146.185 122.542 145.444 122.52 144.697L123.91 144.657C123.9 144.3 123.894 143.941 123.894 143.58V142.518H122.504V140.72H123.646V140.393H123.894V139.33H125.929V140.72H128.212V139.33H130.495V140.72H132.778V139.33H135.061V140.72H137.344V139.33H139.627V140.72H141.91V139.33H144.193V140.72H146.476V139.33H148.759V140.72H151.042V139.33H153.325V140.72H155.608V139.33H157.643V140.432H157.892V140.72H159.033V142.636H157.643V144.84H159.033V147.044H157.643V149.248H159.033V151.452H157.643V153.655H159.033V155.859H157.643V158.063H159.033V160.267H157.643V162.471H159.033V164.675H157.643V166.879H159.033V169.083H157.643V171.287H159.033V173.491H157.643V175.695H159.033V177.61H158.055V177.898H157.643V179H156.098V177.61H155.119C154.763 177.61 154.408 177.604 154.054 177.591L154.004 178.98C153.257 178.953 152.517 178.898 151.784 178.817L151.937 177.436C151.228 177.358 150.527 177.254 149.834 177.125L149.58 178.492C148.847 178.355 148.122 178.193 147.407 178.004L147.761 176.66C147.074 176.479 146.396 176.274 145.727 176.044L145.276 177.359C144.572 177.117 143.879 176.85 143.197 176.559L143.743 175.281C143.09 175.002 142.448 174.7 141.817 174.376L141.181 175.612C140.521 175.273 139.873 174.91 139.238 174.525L139.959 173.336C139.352 172.968 138.758 172.579 138.176 172.169L137.375 173.305C136.769 172.877 136.177 172.428 135.6 171.959L136.476 170.88C135.925 170.433 135.388 169.966 134.866 169.48L133.919 170.498C133.377 169.994 132.85 169.47 132.339 168.929L133.35 167.975C132.863 167.458 132.39 166.924 131.934 166.373L130.864 167.26C130.392 166.69 129.936 166.103 129.499 165.5L130.623 164.684C130.205 164.108 129.804 163.518 129.42 162.913L128.247 163.658C127.85 163.033 127.472 162.394 127.112 161.741L128.329 161.07C127.986 160.448 127.661 159.812 127.354 159.164L126.098 159.759C125.781 159.091 125.484 158.41 125.206 157.718L126.496 157.2C126.231 156.54 125.985 155.868 125.758 155.187L124.439 155.626C124.206 154.925 123.992 154.214 123.799 153.494L125.142 153.134C124.958 152.447 124.793 151.751 124.648 151.047L123.287 151.326C123.138 150.603 123.01 149.871 122.903 149.131L124.278 148.932C124.176 148.228 124.094 147.517 124.032 146.8L122.647 146.919Z" stroke="#A3A3A3" stroke-opacity="0.3" stroke-width="2.78016" stroke-dasharray="2.22 2.22"/>
<path fill-rule="evenodd" clip-rule="evenodd" d="M118.941 139.33H82.4123V179H86.3261C104.339 179 118.941 163.142 118.941 143.58V139.33Z" fill="#A3A3A3" fill-opacity="0.2"/>
<path fill-rule="evenodd" clip-rule="evenodd" d="M77.0669 179H40.9837L40.9837 139.33H44.8498C62.6428 139.33 77.0669 155.188 77.0669 174.75V179Z" fill="#A3A3A3" fill-opacity="0.2"/>
<path fill-rule="evenodd" clip-rule="evenodd" d="M0 179H36.5286L36.5286 139.33H32.6148C14.6022 139.33 0 155.188 0 174.75L0 179Z" fill="#A3A3A3" fill-opacity="0.2"/>
<path d="M0.142992 100.96C0.0797561 100.225 0.0371749 99.484 0.0158859 98.7371L0.571691 98.7213C0.561277 98.3559 0.556031 97.9891 0.556031 97.621L0.556031 96.5584H0L0 94.4332H0.556031V93.9266H1.14153V93.3706H3.42456V93.9266H5.7076V93.3706H7.99064V93.9266H10.2737V93.3706H12.5567V93.9266H14.8398V93.3706H17.1228V93.9266H19.4058V93.3706H21.6889V93.9266H23.9719V93.3706H26.255V93.9266H28.538V93.3706H30.821V93.9266H33.1041V93.3706H35.3871V93.9266H35.9726V94.4726H36.5286V96.6765H35.9726V98.8804H36.5286V101.084H35.9726V103.288H36.5286V105.492H35.9726V107.696H36.5286V109.9H35.9726V112.104H36.5286V114.308H35.9726V116.512H36.5286V118.716H35.9726L35.9726 120.919H36.5286V123.123H35.9726V125.327H36.5286V127.531H35.9726V129.735H36.5286V131.939H35.9726V132.485H35.5502V133.041H33.5933V132.485H32.6148C32.2482 132.485 31.8831 132.478 31.5194 132.465L31.4992 133.021C30.7528 132.993 30.0128 132.939 29.2799 132.858L29.3409 132.305C28.6121 132.225 27.8905 132.118 27.177 131.985L27.0754 132.532C26.3425 132.396 25.6179 132.233 24.9026 132.045L25.0441 131.507C24.3374 131.321 23.6398 131.109 22.9522 130.873L22.7716 131.399C22.068 131.158 21.3747 130.891 20.6926 130.6L20.9109 130.088C20.2397 129.802 19.5795 129.492 18.9312 129.158L18.677 129.653C18.0167 129.313 17.3686 128.951 16.7335 128.565L17.0219 128.09C16.3986 127.712 15.7881 127.312 15.1911 126.891L14.8706 127.345C14.2646 126.918 13.6725 126.469 13.0952 126L13.4458 125.568C12.8805 125.109 12.3294 124.629 11.7936 124.131L11.415 124.538C10.8725 124.034 10.3453 123.511 9.83452 122.969L10.239 122.588C9.73903 122.058 9.25489 121.51 8.78742 120.945L8.3592 121.3C7.88711 120.73 7.43181 120.144 6.99415 119.541L7.44402 119.214C7.01585 118.625 6.60479 118.02 6.21166 117.401L5.7422 117.698C5.34571 117.074 4.96722 116.435 4.60753 115.782L5.09453 115.513C4.74319 114.876 4.41005 114.225 4.09588 113.562L3.59337 113.8C3.27681 113.131 2.97926 112.45 2.70149 111.758L3.21752 111.551C2.94633 110.875 2.69426 110.188 2.46207 109.491L1.93451 109.667C1.70119 108.966 1.48766 108.255 1.29463 107.534L1.83172 107.39C1.64341 106.688 1.4749 105.975 1.32689 105.255L0.782234 105.367C0.633599 104.643 0.505349 103.911 0.398171 103.172L0.948453 103.092C0.844171 102.372 0.760125 101.646 0.696975 100.912L0.142992 100.96Z" stroke="#A3A3A3" stroke-opacity="0.3" stroke-width="1.11206" stroke-dasharray="2.22 2.22"/>
<path fill-rule="evenodd" clip-rule="evenodd" d="M76.6211 133.041H40.0925L40.0925 93.3707H44.0062C62.0189 93.3707 76.6211 109.229 76.6211 128.791V133.041Z" fill="#A3A3A3" fill-opacity="0.2"/>
<path d="M231.375 176.562L229.125 178.188L228.311 177.061L227.551 177.61H226.779V179H224.337V177.61H221.895V179H219.453V177.61H217.011V179H214.569V177.61H212.127V179H209.685V177.61H207.243V179H204.97V177.898H204.801V177.61H203.58V175.694H204.97V173.49H203.58V171.286H204.97V169.082H203.58V166.879H204.97V164.675H203.58V162.471H204.97V160.267H203.58V158.063H204.97V155.859H203.58V153.655H204.97V151.451H203.58V149.247H204.97V147.043H203.58V144.839H204.97V142.636H203.58V140.72H204.559V140.432H204.97V139.33H206.516V140.72H207.494C207.862 140.72 208.226 140.726 208.588 140.737L208.633 139.348C209.399 139.373 210.153 139.423 210.894 139.497L210.755 140.88C211.487 140.954 212.204 141.052 212.907 141.174L213.145 139.805C213.899 139.936 214.638 140.094 215.362 140.277L215.021 141.625C215.727 141.804 216.418 142.008 217.092 142.238L217.54 140.922C218.262 141.168 218.967 141.441 219.654 141.74L219.099 143.015C219.762 143.303 220.407 143.618 221.034 143.957L221.695 142.734C222.363 143.096 223.012 143.484 223.642 143.899L222.877 145.06C223.477 145.454 224.057 145.874 224.619 146.318L225.481 145.228C226.074 145.697 226.647 146.191 227.198 146.71L226.246 147.722C226.767 148.212 227.268 148.726 227.749 149.262L228.784 148.333C229.287 148.893 229.769 149.477 230.229 150.082L229.122 150.923C229.555 151.492 229.968 152.083 230.36 152.694L231.53 151.942C231.935 152.573 232.32 153.224 232.683 153.895L231.46 154.557C231.801 155.187 232.123 155.835 232.424 156.502L233.691 155.929C233.999 156.611 234.287 157.311 234.554 158.027L233.252 158.513C233.503 159.186 233.735 159.875 233.947 160.579L235.278 160.178C235.494 160.894 235.691 161.625 235.867 162.37L234.515 162.691C234.681 163.392 234.829 164.106 234.958 164.834L236.326 164.591C236.457 165.327 236.569 166.076 236.663 166.837L235.283 167.006C235.371 167.724 235.441 168.454 235.494 169.195L236.881 169.097C236.934 169.842 236.969 170.597 236.987 171.361L236.191 171.38L236.186 171.373L236.177 171.38L235.597 171.393C235.6 171.526 235.603 171.659 235.605 171.793L235.061 172.186L235.875 173.312L233.625 174.938L232.811 173.811L230.561 175.436L231.375 176.562Z" stroke="#A3A3A3" stroke-opacity="0.3" stroke-width="2.78016" stroke-dasharray="2.22 2.22"/>
<path fill-rule="evenodd" clip-rule="evenodd" d="M163.042 179H199.126V139.33H195.26C177.467 139.33 163.042 155.188 163.042 174.75V179Z" fill="#A3A3A3" fill-opacity="0.2"/>
<path fill-rule="evenodd" clip-rule="evenodd" d="M163.042 93.3706H199.126V133.041H195.26C177.467 133.041 163.042 117.183 163.042 97.621V93.3706Z" fill="#A3A3A3" fill-opacity="0.2"/>
<path fill-rule="evenodd" clip-rule="evenodd" d="M239.218 133.041H203.135V93.3707H207.001C224.794 93.3707 239.218 109.229 239.218 128.791V133.041Z" fill="#A3A3A3" fill-opacity="0.2"/>
<path d="M117.91 125.471C117.972 126.201 118.013 126.938 118.034 127.681L116.645 127.72C116.655 128.075 116.66 128.432 116.66 128.791V129.853H118.05V131.651H116.922V131.978H116.66V133.041H114.667V131.651H112.412V133.041H110.157V131.651H107.901V133.041H105.646V131.651H103.391V133.041H101.136V131.651H98.8806V133.041H96.6254V131.651H94.3702V133.041H92.115V131.651H89.8598V133.041H87.6046V131.651H85.3494V133.041H83.3567V131.939H83.0942V131.651H81.9666V129.735H83.3567V127.531H81.9666V125.327H83.3567V123.123H81.9666V120.92H83.3567V118.716H81.9666V116.512H83.3567V114.308H81.9666V112.104H83.3567V109.9H81.9666V107.696H83.3567V105.492H81.9666V103.288H83.3567V101.084H81.9666V98.8805H83.3567V96.6766H81.9666V94.7608H82.9332V94.4727H83.3567V93.3707H84.8662V94.7608H85.8327C86.1867 94.7608 86.5393 94.7674 86.8903 94.7804L86.942 93.3913C87.6841 93.4189 88.4199 93.4741 89.1484 93.556L88.9932 94.9374C89.6963 95.0164 90.3924 95.1216 91.0807 95.2519L91.3393 93.8861C92.0674 94.0239 92.7872 94.1887 93.4977 94.3793L93.1375 95.7219C93.8187 95.9047 94.4912 96.1125 95.1541 96.3444L95.6132 95.0323C96.3111 95.2765 96.9987 95.5462 97.6751 95.8402L97.1208 97.115C97.7671 97.396 98.4029 97.7005 99.0274 98.0276L99.6724 96.7962C100.326 97.1386 100.968 97.5045 101.596 97.8928L100.865 99.0753C101.465 99.4459 102.052 99.838 102.627 100.251L103.438 99.122C104.036 99.5522 104.621 100.004 105.191 100.475L104.305 101.546C104.848 101.996 105.378 102.465 105.893 102.953L106.848 101.943C107.383 102.45 107.902 102.975 108.406 103.518L107.386 104.463C107.865 104.981 108.33 105.516 108.779 106.068L109.857 105.191C110.321 105.761 110.769 106.349 111.199 106.952L110.067 107.759C110.478 108.334 110.872 108.925 111.249 109.53L112.428 108.794C112.817 109.418 113.189 110.057 113.541 110.709L112.319 111.37C112.655 111.992 112.974 112.627 113.275 113.273L114.535 112.687C114.845 113.354 115.137 114.033 115.409 114.723L114.115 115.232C114.375 115.891 114.616 116.56 114.838 117.239L116.159 116.807C116.387 117.505 116.596 118.213 116.785 118.93L115.441 119.284C115.621 119.968 115.782 120.661 115.923 121.362L117.286 121.087C117.431 121.807 117.556 122.535 117.661 123.271L116.285 123.467C116.384 124.167 116.465 124.874 116.525 125.588L117.91 125.471Z" stroke="#A3A3A3" stroke-opacity="0.3" stroke-width="2.78016" stroke-dasharray="2.22 2.22"/>
<path fill-rule="evenodd" clip-rule="evenodd" d="M122.504 133.041H159.033V93.3707H155.119C137.107 93.3707 122.504 109.229 122.504 128.791V133.041Z" fill="#A3A3A3" fill-opacity="0.2"/>
</g>
</svg>
