<svg width="19" height="15" viewBox="0 0 19 15" fill="none" xmlns="http://www.w3.org/2000/svg">
<path d="M0.75 3.4375C0.75 2.69158 1.04632 1.97621 1.57376 1.44876C2.10121 0.921316 2.81658 0.625 3.5625 0.625H15.4375C16.1834 0.625 16.8988 0.921316 17.4262 1.44876C17.9537 1.97621 18.25 2.69158 18.25 3.4375V11.5625C18.25 12.3084 17.9537 13.0238 17.4262 13.5512C16.8988 14.0787 16.1834 14.375 15.4375 14.375H3.5625C2.81658 14.375 2.10121 14.0787 1.57376 13.5512C1.04632 13.0238 0.75 12.3084 0.75 11.5625V3.4375ZM3.5625 1.875C3.1481 1.875 2.75067 2.03962 2.45765 2.33265C2.16462 2.62567 2 3.0231 2 3.4375V4.375H17V3.4375C17 3.0231 16.8354 2.62567 16.5424 2.33265C16.2493 2.03962 15.8519 1.875 15.4375 1.875H3.5625ZM2 11.5625C2 11.9769 2.16462 12.3743 2.45765 12.6674C2.75067 12.9604 3.1481 13.125 3.5625 13.125H15.4375C15.8519 13.125 16.2493 12.9604 16.5424 12.6674C16.8354 12.3743 17 11.9769 17 11.5625V5.625H2V11.5625ZM12.625 9.375H14.5C14.6658 9.375 14.8247 9.44085 14.9419 9.55806C15.0592 9.67527 15.125 9.83424 15.125 10C15.125 10.1658 15.0592 10.3247 14.9419 10.4419C14.8247 10.5592 14.6658 10.625 14.5 10.625H12.625C12.4592 10.625 12.3003 10.5592 12.1831 10.4419C12.0658 10.3247 12 10.1658 12 10C12 9.83424 12.0658 9.67527 12.1831 9.55806C12.3003 9.44085 12.4592 9.375 12.625 9.375Z" fill="#64A75D"/>
</svg>
