<svg width="17" height="13" viewBox="0 0 17 13" fill="none" xmlns="http://www.w3.org/2000/svg">
<path d="M11 4.83333L14.7942 2.93667C14.9212 2.8732 15.0623 2.84323 15.2042 2.84962C15.346 2.85601 15.4839 2.89854 15.6047 2.97317C15.7255 3.0478 15.8252 3.15206 15.8944 3.27606C15.9636 3.40006 15.9999 3.53967 16 3.68167V9.31833C15.9999 9.46033 15.9636 9.59994 15.8944 9.72394C15.8252 9.84794 15.7255 9.9522 15.6047 10.0268C15.4839 10.1015 15.346 10.144 15.2042 10.1504C15.0623 10.1568 14.9212 10.1268 14.7942 10.0633L11 8.16667V4.83333ZM1 3.16667C1 2.72464 1.17559 2.30072 1.48816 1.98816C1.80072 1.67559 2.22464 1.5 2.66667 1.5H9.33333C9.77536 1.5 10.1993 1.67559 10.5118 1.98816C10.8244 2.30072 11 2.72464 11 3.16667V9.83333C11 10.2754 10.8244 10.6993 10.5118 11.0118C10.1993 11.3244 9.77536 11.5 9.33333 11.5H2.66667C2.22464 11.5 1.80072 11.3244 1.48816 11.0118C1.17559 10.6993 1 10.2754 1 9.83333V3.16667Z" stroke="#64A75D" stroke-width="1.66667" stroke-linecap="round" stroke-linejoin="round"/>
</svg>
