<svg width="15" height="15" viewBox="0 0 15 15" fill="none" xmlns="http://www.w3.org/2000/svg">
<path d="M9.375 12C8.85 12 8.40625 11.8187 8.04375 11.4562C7.68125 11.0938 7.5 10.65 7.5 10.125C7.5 9.6 7.68125 9.15625 8.04375 8.79375C8.40625 8.43125 8.85 8.25 9.375 8.25C9.9 8.25 10.3438 8.43125 10.7062 8.79375C11.0687 9.15625 11.25 9.6 11.25 10.125C11.25 10.65 11.0687 11.0938 10.7062 11.4562C10.3438 11.8187 9.9 12 9.375 12ZM2.25 15C1.8375 15 1.4845 14.8533 1.191 14.5597C0.8975 14.2662 0.7505 13.913 0.75 13.5V3C0.75 2.5875 0.897 2.2345 1.191 1.941C1.485 1.6475 1.838 1.5005 2.25 1.5H3V0H4.5V1.5H10.5V0H12V1.5H12.75C13.1625 1.5 13.5157 1.647 13.8097 1.941C14.1038 2.235 14.2505 2.588 14.25 3V13.5C14.25 13.9125 14.1033 14.2657 13.8097 14.5597C13.5162 14.8538 13.163 15.0005 12.75 15H2.25ZM2.25 13.5H12.75V6H2.25V13.5ZM2.25 4.5H12.75V3H2.25V4.5Z" fill="#64A75D"/>
</svg>
