<svg width="21" height="21" viewBox="0 0 21 21" fill="none" xmlns="http://www.w3.org/2000/svg">
<path d="M17.5 9.5H3.5M17.5 9.5C18.6046 9.5 19.5 10.3954 19.5 11.5V17.5C19.5 18.6046 18.6046 19.5 17.5 19.5H3.5C2.39543 19.5 1.5 18.6046 1.5 17.5V11.5C1.5 10.3954 2.39543 9.5 3.5 9.5M17.5 9.5V7.5C17.5 6.39543 16.6046 5.5 15.5 5.5M3.5 9.5V7.5C3.5 6.39543 4.39543 5.5 5.5 5.5M5.5 5.5V3.5C5.5 2.39543 6.39543 1.5 7.5 1.5H13.5C14.6046 1.5 15.5 2.39543 15.5 3.5V5.5M5.5 5.5H15.5" stroke="#9E9E9E" stroke-width="2" stroke-linecap="round" stroke-linejoin="round"/>
</svg>
