<svg width="22" height="21" viewBox="0 0 22 21" fill="none" xmlns="http://www.w3.org/2000/svg">
<path d="M1.375 10.5L3.54167 8.5M3.54167 8.5L11.125 1.5L18.7083 8.5M3.54167 8.5V18.5C3.54167 19.0523 4.02669 19.5 4.625 19.5H7.875M18.7083 8.5L20.875 10.5M18.7083 8.5V18.5C18.7083 19.0523 18.2233 19.5 17.625 19.5H14.375M7.875 19.5C8.47331 19.5 8.95833 19.0523 8.95833 18.5V14.5C8.95833 13.9477 9.44336 13.5 10.0417 13.5H12.2083C12.8066 13.5 13.2917 13.9477 13.2917 14.5V18.5C13.2917 19.0523 13.7767 19.5 14.375 19.5M7.875 19.5H14.375" stroke="#9E9E9E" stroke-width="2" stroke-linecap="round" stroke-linejoin="round"/>
</svg>
