<svg width="22" height="20" viewBox="0 0 22 20" fill="none" xmlns="http://www.w3.org/2000/svg">
<path fill-rule="evenodd" clip-rule="evenodd" d="M11.7659 0.292786C11.5627 0.105315 11.2872 0 11 0C10.7127 0 10.4372 0.105315 10.234 0.292786L2.65072 7.29279L0.484049 9.29279C0.38058 9.38503 0.298049 9.49538 0.241273 9.61738C0.184496 9.73939 0.154611 9.87061 0.153361 10.0034C0.152111 10.1362 0.179521 10.2678 0.233992 10.3907C0.288463 10.5136 0.368904 10.6253 0.470621 10.7192C0.572338 10.8131 0.693295 10.8873 0.826432 10.9376C0.95957 10.9879 1.10222 11.0132 1.24607 11.012C1.38991 11.0109 1.53207 10.9833 1.66424 10.9309C1.79641 10.8785 1.91595 10.8023 2.01588 10.7068L2.3333 10.4138V16.9998C2.3333 17.7954 2.67571 18.5585 3.2852 19.1211C3.8947 19.6837 4.72135 19.9998 5.5833 19.9998H16.4166C17.2786 19.9998 18.1052 19.6837 18.7147 19.1211C19.3242 18.5585 19.6666 17.7954 19.6666 16.9998V10.4138L19.9841 10.7068C20.1884 10.8889 20.462 10.9897 20.7461 10.9875C21.0301 10.9852 21.3018 10.88 21.5027 10.6946C21.7035 10.5092 21.8175 10.2584 21.8199 9.99619C21.8224 9.73399 21.7132 9.48139 21.5159 9.29279L11.7659 0.292786Z" fill="#3F71D2"/>
</svg>
