<svg width="21" height="22" viewBox="0 0 21 22" fill="none" xmlns="http://www.w3.org/2000/svg">
<path d="M14.0928 2.02719C13.1806 1.04234 11.9065 0.5 10.5003 0.5C9.08652 0.5 7.80824 1.03906 6.90027 2.01781C5.98246 3.00734 5.53527 4.35219 5.64027 5.80437C5.84839 8.66937 8.02855 11 10.5003 11C12.972 11 15.1484 8.66984 15.3598 5.80531C15.4662 4.36625 15.0162 3.02422 14.0928 2.02719ZM18.7503 21.5H2.25027C2.0343 21.5028 1.82042 21.4574 1.62419 21.3672C1.42796 21.2769 1.25432 21.1441 1.11589 20.9783C0.811206 20.6141 0.688393 20.1167 0.779331 19.6137C1.17496 17.4191 2.40964 15.5755 4.35027 14.2812C6.07433 13.1323 8.25824 12.5 10.5003 12.5C12.7423 12.5 14.9262 13.1328 16.6503 14.2812C18.5909 15.575 19.8256 17.4186 20.2212 19.6133C20.3121 20.1162 20.1893 20.6136 19.8846 20.9778C19.7463 21.1437 19.5726 21.2766 19.3764 21.367C19.1802 21.4573 18.9663 21.5028 18.7503 21.5Z" fill="#3F71D2"/>
</svg>
