<svg width="21" height="20" viewBox="0 0 21 20" fill="none" xmlns="http://www.w3.org/2000/svg">
<path fill-rule="evenodd" clip-rule="evenodd" d="M12.484 0.542C12.571 0.711 12.593 0.928 12.636 1.362C12.718 2.182 12.759 2.592 12.931 2.818C13.0382 2.95832 13.1806 3.06777 13.3437 3.13522C13.5069 3.20266 13.685 3.2257 13.86 3.202C14.14 3.165 14.46 2.904 15.098 2.382C15.435 2.105 15.604 1.967 15.785 1.909C16.0155 1.83534 16.2649 1.84777 16.487 1.944C16.662 2.02 16.817 2.174 17.124 2.482L18.018 3.376C18.326 3.684 18.48 3.838 18.556 4.013C18.6522 4.23506 18.6647 4.48447 18.591 4.715C18.533 4.896 18.395 5.065 18.119 5.402C17.596 6.041 17.335 6.36 17.297 6.641C17.2736 6.8159 17.2969 6.99387 17.3645 7.15686C17.4321 7.31985 17.5417 7.46204 17.682 7.569C17.907 7.741 18.318 7.782 19.139 7.864C19.572 7.907 19.789 7.929 19.959 8.016C20.1735 8.1272 20.3404 8.31227 20.429 8.537C20.5 8.714 20.5 8.932 20.5 9.368V10.632C20.5 11.068 20.5 11.286 20.43 11.462C20.3411 11.6874 20.1734 11.8729 19.958 11.984C19.789 12.071 19.572 12.093 19.138 12.136C18.318 12.218 17.908 12.259 17.682 12.431C17.5417 12.5382 17.4322 12.6806 17.3648 12.8437C17.2973 13.0069 17.2743 13.185 17.298 13.36C17.336 13.64 17.597 13.96 18.119 14.598C18.395 14.935 18.533 15.103 18.591 15.285C18.6647 15.5155 18.6522 15.7649 18.556 15.987C18.48 16.162 18.326 16.316 18.018 16.624L17.124 17.517C16.816 17.826 16.662 17.98 16.487 18.055C16.2649 18.1512 16.0155 18.1637 15.785 18.09C15.604 18.032 15.435 17.894 15.098 17.618C14.459 17.096 14.14 16.835 13.86 16.798C13.685 16.7743 13.5069 16.7973 13.3437 16.8648C13.1806 16.9322 13.0382 17.0417 12.931 17.182C12.759 17.407 12.718 17.817 12.636 18.638C12.593 19.072 12.571 19.289 12.484 19.458C12.3732 19.6732 12.1881 19.8409 11.963 19.93C11.786 20 11.568 20 11.132 20H9.868C9.432 20 9.214 20 9.038 19.93C8.81256 19.8411 8.62706 19.6734 8.516 19.458C8.429 19.289 8.407 19.072 8.364 18.638C8.282 17.818 8.241 17.408 8.069 17.182C7.96192 17.0418 7.81968 16.9325 7.6567 16.8651C7.49372 16.7976 7.31581 16.7745 7.141 16.798C6.86 16.835 6.541 17.096 5.902 17.618C5.565 17.895 5.396 18.033 5.215 18.091C4.98447 18.1647 4.73506 18.1522 4.513 18.056C4.338 17.98 4.183 17.826 3.876 17.518L2.982 16.624C2.674 16.316 2.52 16.162 2.444 15.987C2.34777 15.7649 2.33534 15.5155 2.409 15.285C2.467 15.104 2.605 14.935 2.881 14.598C3.404 13.959 3.665 13.64 3.702 13.359C3.72552 13.1842 3.70239 13.0063 3.63495 12.8433C3.56751 12.6803 3.45816 12.5381 3.318 12.431C3.093 12.259 2.682 12.218 1.861 12.136C1.428 12.093 1.211 12.071 1.041 11.984C0.826547 11.8728 0.659596 11.6877 0.571 11.463C0.5 11.286 0.5 11.068 0.5 10.632V9.368C0.5 8.932 0.5 8.714 0.57 8.538C0.658887 8.31256 0.826615 8.12706 1.042 8.016C1.211 7.929 1.428 7.907 1.862 7.864C2.682 7.782 3.093 7.741 3.318 7.569C3.45834 7.46204 3.56788 7.31985 3.6355 7.15686C3.70312 6.99387 3.72641 6.8159 3.703 6.641C3.665 6.36 3.403 6.041 2.881 5.401C2.605 5.064 2.467 4.896 2.409 4.714C2.33534 4.48347 2.34777 4.23406 2.444 4.012C2.52 3.838 2.674 3.683 2.982 3.375L3.876 2.482C4.184 2.174 4.338 2.019 4.513 1.944C4.73506 1.84777 4.98447 1.83534 5.215 1.909C5.396 1.967 5.565 2.105 5.902 2.381C6.541 2.903 6.86 3.164 7.14 3.202C7.31521 3.22578 7.4936 3.20267 7.65697 3.13504C7.82034 3.06741 7.96286 2.95766 8.07 2.817C8.24 2.592 8.282 2.182 8.364 1.361C8.407 0.928 8.429 0.711 8.516 0.541C8.62701 0.326171 8.8121 0.158843 9.037 0.0699999C9.214 -6.70552e-08 9.432 0 9.868 0H11.132C11.568 0 11.786 -6.70552e-08 11.962 0.0699999C12.1874 0.158887 12.3729 0.326615 12.484 0.542ZM10.5 14C11.5609 14 12.5783 13.5786 13.3284 12.8284C14.0786 12.0783 14.5 11.0609 14.5 10C14.5 8.93913 14.0786 7.92172 13.3284 7.17157C12.5783 6.42143 11.5609 6 10.5 6C9.43913 6 8.42172 6.42143 7.67157 7.17157C6.92143 7.92172 6.5 8.93913 6.5 10C6.5 11.0609 6.92143 12.0783 7.67157 12.8284C8.42172 13.5786 9.43913 14 10.5 14Z" fill="#3F71D2"/>
</svg>
