<svg width="18" height="13" viewBox="0 0 18 13" fill="none" xmlns="http://www.w3.org/2000/svg">
<path fill-rule="evenodd" clip-rule="evenodd" d="M0.698543 0.607534C0.946738 0.359412 1.25359 0.17801 1.59063 0.0801651C1.92766 -0.0176801 2.28395 -0.0287975 2.62643 0.0478447C2.96891 0.124487 3.28648 0.286404 3.54966 0.51857C3.81284 0.750735 4.01311 1.04562 4.13188 1.37587C5.15403 0.96775 6.27079 0.857131 7.35314 1.05679C8.43549 1.25645 9.43928 1.75824 10.2485 2.5042L10.421 2.6692L16.9027 9.1517C17.0462 9.29519 17.1324 9.48611 17.1451 9.68863C17.1579 9.89116 17.0963 10.0914 16.9719 10.2517L16.9027 10.33L15.1352 12.0975C15.0103 12.2224 14.849 12.3044 14.6745 12.3317C14.5 12.3589 14.3214 12.3301 14.1644 12.2492L14.0719 12.1934L11.0852 10.1267C10.2316 11.3641 8.93325 12.2242 7.46093 12.5276C5.98862 12.831 4.45601 12.5543 3.18273 11.7552C1.90945 10.9561 0.99382 9.69632 0.626784 8.23857C0.259748 6.78081 0.469648 5.23763 1.21271 3.93087C0.921824 3.78013 0.670589 3.56292 0.479405 3.29687C0.288221 3.03082 0.162477 2.72343 0.112386 2.39966C0.0622944 2.07589 0.0892669 1.74488 0.191113 1.43349C0.29296 1.1221 0.466808 0.839124 0.698543 0.607534ZM3.35021 3.84837C2.92125 4.27823 2.59144 4.79665 2.38387 5.36735C2.1763 5.93805 2.09599 6.54722 2.14855 7.15222C2.20112 7.75721 2.38529 8.3434 2.68818 8.86975C2.99107 9.39609 3.40535 9.84987 3.90202 10.1993C4.39868 10.5487 4.96573 10.7854 5.56345 10.8927C6.16117 11 6.77512 10.9753 7.36231 10.8204C7.9495 10.6655 8.49573 10.3842 8.96277 9.99601C9.4298 9.60786 9.80635 9.12231 10.066 8.57337C10.1176 8.46398 10.1924 8.36714 10.2852 8.28956C10.378 8.21198 10.4866 8.15554 10.6034 8.12414C10.7202 8.09274 10.8424 8.08714 10.9616 8.10773C11.0808 8.12831 11.194 8.1746 11.2935 8.24337L14.4485 10.4267L15.1352 9.74087L9.24271 3.84837C8.46131 3.06698 7.40151 2.62801 6.29646 2.62801C5.1914 2.62801 4.13161 3.06698 3.35021 3.84837ZM8.06354 5.0267C8.29882 5.25812 8.48595 5.53384 8.61414 5.83794C8.74233 6.14205 8.80903 6.46852 8.81042 6.79854C8.8118 7.12855 8.74783 7.45557 8.62219 7.76074C8.49656 8.06591 8.31174 8.34318 8.07841 8.57657C7.84508 8.80995 7.56785 8.99483 7.26272 9.12054C6.95758 9.24625 6.63057 9.3103 6.30055 9.30899C5.97054 9.30769 5.64405 9.24105 5.33991 9.11294C5.03578 8.98482 4.76002 8.79776 4.52854 8.56253C4.05966 8.09365 3.79625 7.45772 3.79625 6.79462C3.79625 6.13152 4.05966 5.49558 4.52854 5.0267C4.99742 4.55782 5.63336 4.29441 6.29646 4.29441C6.95956 4.29441 7.5955 4.55782 8.06438 5.0267M5.70771 6.20587C5.62812 6.28274 5.56463 6.37469 5.52096 6.47636C5.47728 6.57803 5.4543 6.68738 5.45333 6.79803C5.45237 6.90868 5.47346 7.01842 5.51536 7.12083C5.55726 7.22324 5.61914 7.31629 5.69738 7.39453C5.77562 7.47277 5.86867 7.53465 5.97108 7.57655C6.07349 7.61845 6.18323 7.63954 6.29388 7.63858C6.40453 7.63761 6.51388 7.61463 6.61555 7.57095C6.71722 7.52728 6.80917 7.46379 6.88604 7.3842C7.04241 7.22794 7.1303 7.01597 7.13038 6.79491C7.13046 6.57385 7.04272 6.36182 6.88646 6.20545C6.7302 6.04908 6.51823 5.96119 6.29717 5.96112C6.07611 5.96104 5.86408 6.04878 5.70771 6.20503M2.46688 1.78503C2.42844 1.74524 2.38246 1.7135 2.33163 1.69166C2.28079 1.66982 2.22612 1.65833 2.17079 1.65785C2.11547 1.65737 2.0606 1.66791 2.0094 1.68886C1.95819 1.70981 1.91167 1.74075 1.87254 1.77987C1.83342 1.81899 1.80248 1.86551 1.78153 1.91672C1.76058 1.96793 1.75004 2.02279 1.75052 2.07812C1.751 2.13344 1.7625 2.18812 1.78433 2.23895C1.80617 2.28979 1.83791 2.33576 1.87771 2.3742C1.95629 2.4501 2.06154 2.4921 2.17079 2.49115C2.28004 2.4902 2.38455 2.44638 2.4618 2.36913C2.53905 2.29187 2.58287 2.18737 2.58382 2.07812C2.58477 1.96887 2.54278 1.86362 2.46688 1.78503Z" fill="#64A75D"/>
</svg>
